<svg width="323" height="84" viewBox="46 33 323 84" fill="none" xmlns="http://www.w3.org/2000/svg">
<path d="M88.803 66.016C95.343 71.824 99.467 77.378 100.08 86.609C100.519 93.208 97.965 100.672 93.301 105.375C85.239 113.506 76.401 113.018 66.083 112.991L50 112.926C50.637 101.752 52.317 95.941 61.023 88.122C63.203 86.657 67.743 82.782 69.952 81.018L88.803 66.016Z" fill="#2C35CC"/>
<path d="M61.023 88.122C55.118 82.548 50.297 76.127 50.468 67.668C51.099 36.495 80.3191 40.895 100.67 41.033C100.664 41.686 100.644 42.339 100.61 42.991C100.034 53.634 96.5711 59.122 88.8031 66.016L69.952 81.018C67.743 82.782 63.203 86.657 61.023 88.122Z" fill="#FB7445"/>
<path d="M304.418 37.027C304.825 38.752 304.721 54.932 304.729 57.997L304.882 110.874L297.569 110.87C297.401 107.984 297.392 104.739 297.326 101.817C286.829 113.633 274.356 115.329 261.861 105.043C256.734 99.635 253.848 94.004 253.577 86.372C253.245 78.994 255.934 71.799 261.025 66.449C265.47 61.788 271.625 59.146 278.066 59.134C286.291 59.097 290.765 62.211 296.198 67.64C296.435 58.269 296.447 48.894 296.232 39.522C298.796 38.596 301.777 37.802 304.418 37.027Z" fill="white"/>
<path d="M278.393 66.565C302.291 66.987 303.739 100.001 280.636 104.32C257.834 105.248 254.043 69.576 278.393 66.565Z" fill="#151519"/>
<path d="M334.963 59.481C349.29 57.336 362.647 67.202 364.809 81.527C366.971 95.852 357.121 109.221 342.798 111.399C328.452 113.582 315.056 103.711 312.891 89.363C310.725 75.014 320.611 61.63 334.963 59.481Z" fill="white"/>
<path d="M336.935 66.541C346.152 66.139 353.604 71.151 356.028 80.2C357.461 85.383 356.705 90.927 353.937 95.537C350.73 100.788 346.453 103.045 340.706 104.362C316.586 105.267 313.77 70.42 336.935 66.541Z" fill="#151519"/>
<path d="M192.967 59.555C221.834 57.362 215.714 83.091 217.052 101.612C217.323 105.361 220.028 103.236 222.867 105.296C223.738 106.949 223.453 108.791 223.39 110.706C215.594 111.585 211.924 112.027 209.273 103.78C201.337 112.21 190.892 114.282 180.655 108.57C180.105 108.087 179.57 107.587 179.051 107.07C176.251 104.201 174.746 100.312 174.886 96.305C175.378 78.526 196.581 79.917 209.003 79.988C206.207 62.423 192.95 64.434 180.533 71.628L177.008 65.709C182.812 61.882 186.069 60.582 192.967 59.555Z" fill="white"/>
<path d="M193.476 86.548C198.614 86.227 203.454 86.3589 208.587 86.4429C208.883 96.9359 209.044 100.522 198.416 104.739C192.339 105.474 184.72 105.032 183.096 97.644C182.591 95.431 183.058 93.108 184.377 91.262C186.655 88.034 189.847 87.21 193.476 86.548Z" fill="#151519"/>
<path d="M142.074 41.597C152.523 41.673 159.656 44.059 166.974 51.685C165.253 53.503 163.53 55.47 161.846 57.336C155.654 52 151.199 49.295 142.304 49.283C131.578 48.34 122.64 60.161 132.621 67.654C143.494 75.817 168.494 73.47 168.412 93.052C168.43 97.833 166.468 102.409 162.991 105.692C156.557 111.79 147.689 111.522 139.521 111.367C128.946 109.776 123.69 107.482 116.473 99.327C118.27 97.44 120.351 95.608 122.277 93.835C129.756 101.751 136.621 104.655 147.657 103.774C153.964 103.271 160.706 99.59 159.819 92.287C158.641 84.354 148.99 82.24 142.617 80.309C133.811 77.641 120.729 73.893 120.341 62.624C119.852 48.417 129.104 42.561 142.074 41.597Z" fill="white"/>
<path d="M238.39 36.995C238.773 39.106 238.556 49.952 238.542 52.633L238.375 86.878C238.338 96.998 236.372 108.384 250.841 102.273L252.819 109.785C250.438 110.516 248.567 110.828 246.136 111.282C245.46 111.332 244.784 111.366 244.107 111.383C226.643 111.715 230.396 91.458 230.412 79.22C230.467 66.07 230.45 52.92 230.363 39.771C232.878 38.682 235.762 37.842 238.39 36.995Z" fill="white"/>
</svg>
